
        <svg
          class="sc-74d3f8e9-1 ODumP position-absolute"
          width="540"
          height="400"
          viewBox="0 0 540 400"
          fill="none"
          xmlns="http://www.w3.org/2000/svg"
        >
          <path
            d="M211.448 87.1766L102.425 16.3455L41.8572 51.761C28.3976 63.5662 1.47836 92.0802 1.47836 111.695C1.47836 136.213 -0.54058 177.077 1.47836 190.699C3.49731 204.32 102.425 250.633 124.634 247.908C146.842 245.184 225.581 264.254 257.884 299.669C290.187 335.085 292.206 351.43 364.888 386.846C437.57 422.261 445.645 375.949 471.892 351.43C498.138 326.912 516.308 234.287 534.479 177.077C552.649 119.868 520.346 87.1766 516.308 51.761C513.078 23.4286 475.93 16.3455 457.759 16.3455L364.888 0L211.448 87.1766Z"
            fill="#BCF78C"
          ></path>
        </svg>